<?xml version="1.0" encoding="iso-8859-1"?>
<!-- Generator: Adobe Illustrator 19.0.0, SVG Export Plug-In . SVG Version: 6.00 Build 0)  -->
<svg version="1.1" id="Capa_1" xmlns="http://www.w3.org/2000/svg" xmlns:xlink="http://www.w3.org/1999/xlink" x="0px" y="0px"
	 viewBox="0 0 512 512" style="enable-background:new 0 0 512 512;" xml:space="preserve">
<g>
	<g>
		<g>
			<rect x="134.582" y="455.551" transform="matrix(-0.982 -0.189 0.189 -0.982 209.3372 963.062)" width="32" height="32"/>
			<path d="M480,265.464v-89.728l-112,25.84v-85.728c0-61.856-50.144-112-112-112s-112,50.144-112,112v85.728l-112-25.84v89.728
				c-19.474,9.237-31.918,28.831-32,50.384v32c0.082,21.553,12.526,41.147,32,50.384v66.832l68.384,13.152l6.032-31.424L64,438.632
				v-35.6c27.482-3.925,47.921-27.423,48-55.184v-32c-0.079-27.761-20.518-51.259-48-55.184V215.96l176,40.688v51.2h32v-51.2
				l176-40.624v44.704c-27.458,3.921-47.89,27.383-48,55.12v32c0.079,27.761,20.518,51.259,48,55.184v35.6l-176,33.84v-68.624h-32
				v68.624l-39.312-7.552l-6.032,31.424L256,508.152l224-43.088v-66.832c19.474-9.237,31.918-28.831,32-50.384v-32
				C511.918,294.295,499.474,274.701,480,265.464z M80,315.848v32c0,13.255-10.745,24-24,24s-24-10.745-24-24v-32
				c0-13.255,10.745-24,24-24S80,302.593,80,315.848z M256,35.848c40.038,0.125,73.794,29.879,78.944,69.584l-45.088-22.544
				L176.464,111.24C178.844,69.02,213.713,35.967,256,35.848z M336,208.968l-80,18.464l-80-18.464v-64.624l110.144-27.536
				L336,141.736V208.968z M480,347.848c0,13.255-10.745,24-24,24s-24-10.745-24-24v-32c0-13.255,10.745-24,24-24s24,10.745,24,24
				V347.848z"/>
			<rect x="240" y="339.848" width="32" height="32"/>
		</g>
	</g>
</g>
<g>
</g>
<g>
</g>
<g>
</g>
<g>
</g>
<g>
</g>
<g>
</g>
<g>
</g>
<g>
</g>
<g>
</g>
<g>
</g>
<g>
</g>
<g>
</g>
<g>
</g>
<g>
</g>
<g>
</g>
</svg>
