<svg height="512pt" viewBox="0 -16 512 512" width="512pt" xmlns="http://www.w3.org/2000/svg"><path d="m407 270c-20.222656 0-39.125 5.753906-55.167969 15.699219l-47.074219-23.21875c16.941407-20.300781 26.242188-45.960938 26.242188-72.574219v-114.90625c0-41.355469-33.644531-75-75-75h-180c-8.285156 0-15 6.714844-15 15v30c0 36.21875 25.808594 66.523438 60 73.492188v76.507812c0 25.351562 8.832031 49.15625 25.074219 68.113281l-104.613281 51.886719c-25.574219 12.785156-41.460938 38.488281-41.460938 67.082031v82.917969c0 8.285156 6.714844 15 15 15h392c57.871094 0 105-47.078125 105-105 0-57.898438-47.101562-105-105-105zm65.21875 68.035156-29.53125 9.597656c-5.253906-6.832031-12.414062-12.117187-20.6875-15.054687v-31.070313c21.507812 4.386719 39.683594 18.011719 50.21875 36.527344zm-65.21875 111.964844c-11.070312 0-21.574219-2.429688-31.042969-6.753906l18.242188-25.109375c4.0625 1.207031 8.355469 1.863281 12.800781 1.863281s8.738281-.65625 12.796875-1.863281l18.246094 25.109375c-9.46875 4.324218-19.972657 6.753906-31.042969 6.753906zm-15-148.492188v31.070313c-8.269531 2.9375-15.433594 8.222656-20.6875 15.054687l-29.53125-9.597656c10.535156-18.515625 28.710938-32.140625 50.21875-36.527344zm0 73.492188c0-8.269531 6.730469-15 15-15s15 6.730469 15 15-6.730469 15-15 15-15-6.730469-15-15zm-59.511719-8.4375 29.542969 9.597656c.230469 9.011719 3.113281 17.375 7.910156 24.328125l-18.246094 25.113281c-12.222656-13.351562-19.695312-31.117187-19.695312-50.601562 0-2.855469.175781-5.667969.488281-8.4375zm-181.488281-246.5625h15c33.816406 0 63.953125-16.070312 83.171875-40.976562 10.230469 20.011718 29.195313 34.84375 51.828125 39.460937v71.421875c0 42.058594-31.824219 77.9375-70.945312 79.988281-20.835938 1.089844-40.605469-6.183593-55.671876-20.480469-15.078124-14.3125-23.382812-33.636718-23.382812-54.414062zm45 175.691406c11.449219 3.394532 23.445312 4.796875 35.625 4.160156 8.355469-.4375 16.523438-1.917968 24.375-4.367187v4.515625c0 16.542969-13.457031 30-30 30s-30-13.457031-30-30zm105-220.691406v12.421875c-17.460938-6.195313-30-22.867187-30-42.421875v-12.421875c17.460938 6.195313 30 22.867187 30 42.421875zm-210-30.011719v-15h148.492188c-6.96875 34.195313-37.273438 60.011719-73.492188 60.011719h-30c-24.8125 0-45-20.195312-45-45.011719zm-36.167969 296.867188 111.167969-55.136719v13.28125c0 33.085938 26.914062 60 60 60s60-26.914062 60-60v-13.320312l41.105469 20.269531c-15.644531 18.34375-25.105469 42.113281-25.105469 68.050781 0 29.355469 12.113281 55.925781 31.597656 75h-212.597656v-45c0-8.285156-6.714844-15-15-15h-76v-7.917969c0-17.15625 9.53125-32.578125 24.832031-40.226562zm-24.832031 78.144531h61v30h-61zm432.304688 5.601562-18.246094-25.113281c4.796875-6.953125 7.683594-15.316406 7.914062-24.328125l29.539063-9.597656c.3125 2.769531.488281 5.582031.488281 8.4375 0 19.484375-7.472656 37.25-19.695312 50.601562zm0 0"/></svg>